<?xml version="1.0" encoding="UTF-8"?>
<svg width="600" height="400" viewBox="0 0 600 400" xmlns="http://www.w3.org/2000/svg">
    <!-- Background -->
    <rect width="600" height="400" fill="#f8f9fa"/>
    
    <!-- Tools Icons -->
    <g transform="translate(50, 50)">
        <!-- Image Tool Icon -->
        <circle cx="100" cy="100" r="40" fill="#4a90e2" opacity="0.2"/>
        <path d="M80,100 L120,100 M100,80 L100,120" stroke="#4a90e2" stroke-width="8" stroke-linecap="round"/>
        
        <!-- SEO Tool Icon -->
        <circle cx="250" cy="100" r="40" fill="#4a90e2" opacity="0.2"/>
        <path d="M230,100 L270,100 M250,80 L250,120" stroke="#4a90e2" stroke-width="8" stroke-linecap="round"/>
        
        <!-- Text Tool Icon -->
        <circle cx="400" cy="100" r="40" fill="#4a90e2" opacity="0.2"/>
        <path d="M380,100 L420,100 M400,80 L400,120" stroke="#4a90e2" stroke-width="8" stroke-linecap="round"/>
    </g>
    
    <!-- Decorative Elements -->
    <g transform="translate(100, 200)">
        <!-- Dots Pattern -->
        <circle cx="0" cy="0" r="4" fill="#4a90e2" opacity="0.3"/>
        <circle cx="20" cy="0" r="4" fill="#4a90e2" opacity="0.3"/>
        <circle cx="40" cy="0" r="4" fill="#4a90e2" opacity="0.3"/>
        <circle cx="60" cy="0" r="4" fill="#4a90e2" opacity="0.3"/>
        <circle cx="80" cy="0" r="4" fill="#4a90e2" opacity="0.3"/>
    </g>
    
    <!-- Connecting Lines -->
    <g stroke="#4a90e2" stroke-width="2" opacity="0.2">
        <line x1="100" y1="100" x2="250" y2="100"/>
        <line x1="250" y1="100" x2="400" y2="100"/>
    </g>
</svg> 